<svg width="24" height="24" viewBox="0 0 24 24" fill="none" xmlns="http://www.w3.org/2000/svg">
<path d="M23.1531 14.2456C22.755 12.696 22.2185 11.1795 21.541 9.71377C21.5105 9.64681 21.4783 9.57986 21.4462 9.51291C21.414 9.44434 21.3811 9.37658 21.3489 9.30963C20.3533 7.24778 19.0766 5.29403 17.5122 3.5H17.5105C17.3737 3.57825 17.2344 3.65488 17.0976 3.73071L13.3787 5.80707L12.9979 6.01923L12.9938 6.02084C13.6219 8.33033 13.8081 10.7124 13.5378 13.0163C13.5279 13.0905 13.5205 13.1631 13.509 13.2357C13.5048 13.2768 13.4991 13.318 13.4941 13.3583C13.2922 14.7756 12.9196 16.1413 12.3979 17.432C12.3081 16.7318 12.1754 16.0348 11.9998 15.35C11.7179 14.2569 11.3297 13.1897 10.8311 12.1612C10.2129 10.8851 9.42248 9.67101 8.46391 8.55378L5.80498 10.038L5.51568 10.2002C5.52886 10.2486 5.5404 10.297 5.55194 10.3446C5.55771 10.3672 5.56348 10.3898 5.56925 10.4115C6.08686 12.5508 6.0168 14.77 5.33105 16.7866C5.32775 16.7955 5.32528 16.8052 5.32116 16.8141C5.30962 16.8479 5.29808 16.8818 5.28572 16.9157C5.27088 16.9577 5.2544 17.0004 5.23874 17.0432C5.23214 17.0649 5.22473 17.0851 5.21648 17.1069C5.21648 17.1069 5.21648 17.1069 5.21648 17.1053V17.1037C5.21648 17.098 5.21484 17.0907 5.21319 17.0851C5.15796 16.7366 5.08708 16.3889 4.99889 16.0453C4.76893 15.1459 4.42523 14.2739 3.96779 13.4494C3.63398 12.8461 3.23836 12.2685 2.78174 11.7248L1.06077 12.6863L0.817626 12.8219C1.23798 14.5441 1.07313 16.3454 0.28518 17.8805C0.198637 18.0507 0.103027 18.2177 0 18.3806L0.271168 18.4161L2.08692 18.6517C2.51469 17.7756 2.7941 16.831 2.92351 15.8436L2.92598 15.8501C2.92845 15.8582 2.9301 15.8654 2.93257 15.8735C3.03807 16.2123 3.12544 16.5535 3.19138 16.8972C3.30759 17.4909 3.36611 18.0902 3.36858 18.6888C3.36858 18.7315 3.36858 18.7751 3.36858 18.8178L4.30737 18.9404H4.31067L4.7236 18.9953L5.3022 19.0703L7.51853 19.3583C8.17708 18.0104 8.6065 16.5575 8.80596 15.0394C8.81008 15.0499 8.81503 15.0604 8.81667 15.0717C8.81832 15.0757 8.8208 15.0789 8.8208 15.083C9.05652 15.8388 9.22961 16.6027 9.34005 17.3723C9.44885 18.1152 9.49583 18.8662 9.49006 19.6132V19.6172L9.53952 19.6229L11.2069 19.8407L11.5209 19.8778L11.5382 19.8794L16.172 20.4828C17.194 18.3838 17.8617 16.1203 18.174 13.7568C18.1757 13.7665 18.1782 13.7737 18.1815 13.781C18.1856 13.7979 18.1913 13.8124 18.1963 13.8294C18.9175 16.1445 19.2579 18.5153 19.2389 20.8813L23.9963 21.5C24.0359 19.0485 23.7565 16.6067 23.1515 14.2416L23.1531 14.2456Z" fill="#6E6E6E"/>
</svg>
