<svg width="25" height="24" viewBox="0 0 25 24" fill="none" xmlns="http://www.w3.org/2000/svg">
<path fill-rule="evenodd" clip-rule="evenodd" d="M3.84483 3.64245C6.20141 1.21274 9.04141 -0.000976562 12.3625 -0.000976562C15.6837 -0.000976562 18.5145 1.20474 20.854 3.61502C23.1934 6.02645 24.3626 8.92702 24.3626 12.3202C24.3626 14.999 23.5945 17.4093 22.0585 19.5522C20.5237 21.695 18.5591 23.1773 16.166 23.999H15.9523C15.5237 23.999 15.3088 23.7853 15.3088 23.3556L15.3363 22.151C15.3534 21.383 15.3625 20.6767 15.3625 20.0345C15.3625 18.999 15.0768 18.231 14.5054 17.7316C16.1488 17.5167 17.4791 16.9899 18.4963 16.151C19.5134 15.311 20.0231 13.8196 20.0231 11.6779C20.0231 10.3922 19.6117 9.28474 18.7911 8.35674C19.1488 7.32017 19.1123 6.23102 18.6837 5.08817H18.4163C17.5945 5.08817 16.5763 5.51674 15.3625 6.37388C14.3864 6.09657 13.3773 5.95241 12.3625 5.94531C11.398 5.94531 10.398 6.08817 9.36255 6.37388C8.14769 5.51674 7.13055 5.08817 6.30884 5.08817H6.04255C5.61398 6.23102 5.57741 7.32017 5.93512 8.35674C5.11341 9.28474 4.70312 10.391 4.70312 11.6779C4.70312 13.8207 5.20255 15.3122 6.20255 16.151C7.20255 16.9899 8.52483 17.5167 10.1683 17.7316C9.77398 18.1236 9.52483 18.6779 9.41741 19.3922C8.98476 19.6073 8.50744 19.7174 8.02426 19.7133C7.13169 19.7133 6.43569 19.2676 5.93512 18.3739C5.47112 17.5887 4.84598 17.1602 4.06083 17.0882C3.30998 17.0882 3.29169 17.3385 4.00712 17.8379C4.54198 18.1236 4.98883 18.7316 5.34541 19.6596C5.38198 19.8025 5.45283 19.9727 5.56026 20.1682C5.66769 20.3647 5.96141 20.6242 6.44369 20.9453C6.92598 21.2665 7.50655 21.4276 8.18541 21.4276C8.68483 21.4276 9.07798 21.3922 9.36369 21.3202V23.4093C9.36369 23.8025 9.16712 23.999 8.77398 23.999H8.56026C6.13169 23.1773 4.15798 21.7042 2.64026 19.5796C1.12141 17.4539 0.362549 15.0345 0.362549 12.319C0.362549 8.92588 1.52369 6.03331 3.84483 3.64017V3.64245Z" fill="#6E6E6E"/>
</svg>
