<svg width="24" height="24" viewBox="0 0 24 24" fill="none" xmlns="http://www.w3.org/2000/svg">
<path fill-rule="evenodd" clip-rule="evenodd" d="M14 23.8341C13.3496 23.9432 12.6814 24 12 24C5.37258 24 0 18.6274 0 12C0 5.37258 5.37258 0 12 0C18.6274 0 24 5.37258 24 12C24 12.6814 23.9432 13.3496 23.8341 14H16.6965C17.0578 11.8719 17.4424 9.41999 17.5622 8.16061C17.578 7.99436 17.5581 7.7816 17.5422 7.68821C17.5262 7.59481 17.4928 7.46174 17.3714 7.36323C17.2276 7.24657 17.0056 7.22197 16.9064 7.22372C16.455 7.23167 15.7626 7.47245 12.43 8.85856C11.2628 9.34403 8.93014 10.3488 5.43189 11.873C4.86383 12.0989 4.56626 12.3198 4.53917 12.5359C4.49339 12.9011 4.95071 13.0449 5.57347 13.2408L5.57353 13.2408C5.65822 13.2674 5.74598 13.295 5.83594 13.3242C6.44864 13.5234 7.27283 13.7564 7.70129 13.7657C8.08994 13.7741 8.52373 13.6138 9.00264 13.285C12.2712 11.0786 13.9584 9.96344 14.0643 9.9394C14.139 9.92244 14.2426 9.90111 14.3128 9.96348C14.3829 10.0258 14.376 10.144 14.3686 10.1756C14.3233 10.3688 12.5281 12.0377 11.5991 12.9014L11.5991 12.9014L11.5991 12.9014C11.3095 13.1707 11.1041 13.3617 11.0621 13.4053C10.968 13.503 10.8721 13.5954 10.78 13.6842L10.78 13.6842C10.2108 14.233 9.78391 14.6445 10.8036 15.3164C11.2936 15.6393 11.6858 15.9064 12.0769 16.1728C12.5042 16.4637 12.9303 16.7539 13.4816 17.1153C13.6221 17.2074 13.7562 17.303 13.8869 17.3962C13.9249 17.4232 13.9625 17.4501 14 17.4766V23.8341Z" fill="#6E6E6E"/>
<path d="M20.94 23.9364C23.6872 21.7217 23.6862 18.2774 20.94 16.0636C20.8368 15.9804 20.6619 15.9787 20.5548 16.0592L19.9853 16.4872C19.883 16.564 19.8809 16.6875 19.9789 16.7672C22.22 18.5912 22.2205 21.4085 19.9789 23.2329C19.8809 23.3126 19.8832 23.4361 19.9853 23.5129L20.5548 23.9409C20.6619 24.0212 20.8368 24.0196 20.94 23.9364ZM19.0368 22.5334C20.7456 21.0926 20.7437 18.9057 19.0368 17.4666C18.9345 17.3804 18.757 17.3776 18.6487 17.4595L18.0789 17.89C17.9796 17.965 17.9729 18.0857 18.0655 18.1656C19.282 19.215 19.2794 20.7874 18.0655 21.8342C17.9729 21.9141 17.9795 22.0349 18.0789 22.1099L18.6487 22.5404C18.757 22.6224 18.9347 22.6195 19.0368 22.5334Z" fill="#6E6E6E"/>
<circle cx="17" cy="20" r="1" fill="#6E6E6E"/>
</svg>
