<svg width="24" height="24" viewBox="0 0 24 24" fill="none" xmlns="http://www.w3.org/2000/svg">
<path fill-rule="evenodd" clip-rule="evenodd" d="M21.2243 1C21.7209 1 22.141 1.16238 22.4846 1.48714C22.8282 1.8119 23 2.22257 23 2.71914V21.109C23 21.6056 22.8282 22.0456 22.4846 22.427C22.141 22.8093 21.7198 23 21.2243 23H2.89095C2.39438 23 1.95438 22.8093 1.57305 22.427C1.19067 22.0467 1 21.6067 1 21.109V2.71914C1 2.22257 1.18124 1.8119 1.54476 1.48714C1.90724 1.16238 2.35562 1 2.89095 1H21.2243ZM19.6181 6.5C19.6181 6.5 19.543 9.48174 16.1068 11.9894C16.4778 12.1421 19.1298 13.4881 20.25 17.4788H17.2812C17.2812 17.4788 16.6579 14.1158 13.1527 13.5356V17.4788C13.1527 17.4788 4.08348 18.4922 3.75 6.5H6.5918C6.5918 6.5 6.5629 12.9233 10.4413 14.0989V6.5H13.1527V10.8352C13.1527 10.8352 15.7553 10.5568 16.9549 6.5H19.6181Z" fill="#6E6E6E"/>
</svg>
