<svg width="24" height="24" viewBox="0 0 24 24" fill="none" xmlns="http://www.w3.org/2000/svg">
<g clip-path="url(#clip0_80755_9474)">
<path fill-rule="evenodd" clip-rule="evenodd" d="M22.7227 4.36984C23.0951 4.76878 23.3625 5.26484 23.4982 5.80837C24 7.8145 24 11.998 24 11.998C24 11.998 24 16.1816 23.4982 18.1877C23.3625 18.7313 23.0951 19.2273 22.7227 19.6263C22.3503 20.0252 21.8861 20.313 21.3764 20.461C19.5 20.998 12 20.998 12 20.998C12 20.998 4.5 20.998 2.62364 20.461C2.11393 20.313 1.64966 20.0252 1.27729 19.6263C0.904916 19.2273 0.637506 18.7313 0.501818 18.1877C0 16.1816 0 11.998 0 11.998C0 11.998 0 7.8145 0.501818 5.80837C0.637506 5.26484 0.904916 4.76878 1.27729 4.36984C1.64966 3.9709 2.11393 3.68306 2.62364 3.53514C4.5 2.99805 12 2.99805 12 2.99805C12 2.99805 19.5 2.99805 21.3764 3.53514C21.8861 3.68306 22.3503 3.9709 22.7227 4.36984ZM16 12L10 8V16L16 12Z" fill="#6E6E6E"/>
</g>
<defs>
<clipPath id="clip0_80755_9474">
<rect width="24" height="24" fill="white"/>
</clipPath>
</defs>
</svg>
